<?xml version="1.0" encoding="UTF-8"?><svg width="111" height="41.225" fill="#e40914" focusable="false" version="1.1" viewBox="0 0 82.14 41.224609" xmlns="http://www.w3.org/2000/svg" xmlns:cc="http://creativecommons.org/ns#" xmlns:dc="http://purl.org/dc/elements/1.1/" xmlns:rdf="http://www.w3.org/1999/02/22-rdf-syntax-ns#"><g transform="translate(-14.426)"><path transform="translate(-19.5)" d="m19.496 0v30c1.5934-0.25025 3.0942-0.46785 4.7812-0.65625v-16.375l5.3438 15.719c1.7818-0.24932 3.4688-0.34287 5.125-0.625v-28.062h-4.6875v17.031l-6.0938-17.031zm19.814 0v27.688l12.967-1.0332v-4.5c-2.781 0.09373-5.5312 0.31355-8.2812 0.50195v-6.9688c1.7499-0.09467 4.188-0.0957 6.25-0.0957v-4.6875c-1.6562 0-4.4373 0.09375-6.25 0.09375v-6.3106h8.2812v-4.6875zm16 0v4.6875h4.8438v21.623c1.5315-0.06186 3.125-0.06055 4.6875-0.06055v-21.562h4.873v-4.6875zm17.404 0v26h4.627v-10.656h6.4043v-4.6875h-6.4043v-5.9688h8.498v-4.6875zm16.033 0v26.312c4.2803 0.09467 8.4674 0.34381 12.654 0.625v-4.6562c-2.5935-0.12466-5.2805-0.34345-7.9687-0.40625v-21.875zm16.625 0v27.25c1.4997 0.09373 3.0622 0.15629 4.5938 0.34375v-27.594zm8.5918 0 5.4707 14.094-6.0332 13.75c1.6871 0.21838 3.3461 0.31256 5.0332 0.59375l3.4355-7.9688 3.3457 8.6875c1.7818 0.28119 3.5294 0.59349 5.2793 0.84375l-5.9355-15.719 5.9355-14.281h-5.123l-3.2812 7.875-3.0625-7.875zm-40.004 31.127c-1.5582-1e-6 -2.7806 0.45421-3.666 1.3613-0.88542 0.90278-1.3281 2.1332-1.3281 3.6914 0 1.5451 0.44271 2.7721 1.3281 3.6836 0.88542 0.90712 2.1079 1.3613 3.666 1.3613 1.5625 0 2.7865-0.45421 3.6719-1.3613 0.88542-0.91146 1.3281-2.1385 1.3281-3.6836 0-1.5582-0.44423-2.7886-1.334-3.6914-0.88976-0.90712-2.1122-1.3613-3.666-1.3613zm-18.189 0.01367c-0.73785 0-1.4199 0.11719-2.0449 0.35156-0.62066 0.23437-1.1415 0.5664-1.5625 0.99609-0.43837 0.44705-0.77192 0.98242-1.002 1.6074s-0.3457 1.3216-0.3457 2.0898c0 0.82465 0.11871 1.5523 0.35742 2.1816 0.24306 0.62934 0.58507 1.1532 1.0234 1.5742s0.96072 0.7385 1.5684 0.95117c0.61198 0.21268 1.2776 0.31836 1.998 0.31836 0.48611 0 0.86871-0.02257 1.1465-0.07031s0.57574-0.11784 0.89258-0.20898c0.24306-0.06945 0.47396-0.15256 0.69531-0.24805 0.22135-0.09549 0.45421-0.19618 0.69726-0.30469v-2.3184h-0.25976c-0.11719 0.10417-0.26693 0.22786-0.44922 0.37109s-0.38108 0.27843-0.59375 0.4043c-0.25174 0.15625-0.52669 0.27995-0.82617 0.37109-0.29514 0.09115-0.59462 0.13672-0.89844 0.13672-0.31684 0-0.63737-0.05056-0.96289-0.15039-0.32552-0.10417-0.62196-0.27496-0.88672-0.51367-0.26042-0.23438-0.47678-0.55686-0.65039-0.96484-0.16927-0.40799-0.25391-0.9158-0.25391-1.5234 0-0.5816 0.07813-1.0764 0.23438-1.4844 0.16059-0.40799 0.36892-0.73503 0.625-0.98242 0.2691-0.25608 0.56207-0.43837 0.87891-0.54688 0.31684-0.11285 0.65039-0.16992 1.002-0.16992 0.31684 0 0.6148 0.04905 0.89258 0.14453 0.27778 0.09549 0.53668 0.21267 0.77539 0.35156 0.23438 0.13889 0.44271 0.27864 0.625 0.42188 0.18663 0.14323 0.33941 0.26692 0.46094 0.37109h0.28711v-2.3496c-0.17795-0.0868-0.38628-0.17947-0.625-0.2793-0.23437-0.10417-0.49631-0.19878-0.78711-0.28125-0.27778-0.07379-0.58225-0.13238-0.91211-0.17578-0.32552-0.04775-0.69162-0.07031-1.0996-0.07031zm5.2734 0.1875v9.6953h6.9922v-1.875h-4.4922v-7.8203zm19.816 0v9.6953h2.293v-6.6543l4.1133 6.6543h2.4102v-9.6953h-2.293v5.5547l-3.5352-5.5547zm11.303 0v9.6953h7.0117v-1.875h-4.5254v-2.3965h4.1992v-1.875h-4.1992v-1.6738h4.5254v-1.875zm-18.197 1.6289c0.3125 0 0.61198 0.05859 0.89844 0.17578 0.2908 0.11719 0.54818 0.30599 0.76953 0.56641 0.21701 0.25174 0.39279 0.5803 0.52734 0.98828 0.13455 0.40799 0.20117 0.90278 0.20117 1.4844 0 0.54254-0.05859 1.0163-0.17578 1.4199-0.11719 0.39931-0.29796 0.74588-0.54102 1.041-0.21701 0.26042-0.47092 0.45421-0.76172 0.58008-0.2908 0.12153-0.59679 0.18164-0.91797 0.18164-0.32118 0-0.62717-0.06011-0.91797-0.18164-0.2908-0.12153-0.5447-0.31033-0.76172-0.56641-0.21701-0.25608-0.39279-0.58659-0.52734-0.99023-0.13021-0.40799-0.19531-0.8993-0.19531-1.4766 0-0.56424 0.06858-1.059 0.20312-1.4844 0.13889-0.42969 0.31619-0.76671 0.5332-1.0098 0.23437-0.26042 0.4898-0.4477 0.76758-0.56055 0.28212-0.11285 0.5816-0.16797 0.89844-0.16797z"/></g></svg>