<svg fill="#e40914" width="150px" focusable="false" viewBox="0 0 111 30" xmlns="http://www.w3.org/2000/svg">
    <g>
        <path d="m105.06 14.281l5.9368 15.719c-1.7499-0.25026-3.4989-0.56331-5.2807-0.8445l-3.3443-8.6868-3.4371 7.9689c-1.6871-0.28119-3.3443-0.37586-5.0314-0.59424l6.0315-13.75-5.4691-14.093h5.0633l3.0621 7.8742 3.2815-7.8742h5.1242l-5.9368 14.281zm-14.594-14.281h-4.5937v27.25c1.4997 0.09373 3.0621 0.15559 4.5937 0.34305v-27.593zm-8.5631 26.937c-4.1869-0.28119-8.3747-0.53051-12.655-0.62518v-26.312h4.6865v21.875c2.6882 0.062799 5.3754 0.28119 7.9689 0.40585v4.6565zm-17.656-16.281v4.6874h-6.4055v10.656h-4.6256v-26h13.125v4.6874h-8.4994v5.9687h6.4055zm-18.906-5.9687v21.562c-1.5625 0-3.1559 0-4.6874 0.061862v-21.624h-4.8439v-4.6874h14.406v4.6874h-4.8749zm-14.594 10.905c-2.062 0-4.5 0-6.2499 0.094667v6.9688c2.75-0.1884 5.5-0.40679 8.281-0.50052v4.5l-12.968 1.032v-27.688h12.968v4.6874h-8.281v6.3117c1.8127 0 4.5937-0.09373 6.2499-0.09373v4.6874zm-25.969-2.6244v16.375c-1.6871 0.1884-3.1877 0.40679-4.7811 0.65704v-30h4.469l6.0934 17.032v-17.032h4.6874v28.062c-1.6562 0.28213-3.3433 0.37586-5.1251 0.62518l-5.3435-15.718z"/>
    </g>
</svg>